<svg width="23" height="27" viewBox="0 0 23 27" fill="none" xmlns="http://www.w3.org/2000/svg">
<path d="M14.9501 23.9071H18.4001C19.0101 23.9071 19.5951 23.6272 20.0265 23.1291C20.4578 22.6309 20.7001 21.9553 20.7001 21.2508V17.2662C20.7001 16.914 20.8213 16.5762 21.0369 16.3271C21.2526 16.078 21.5451 15.9381 21.8501 15.9381C22.1551 15.9381 22.4476 16.078 22.6633 16.3271C22.879 16.5762 23.0001 16.914 23.0001 17.2662V21.2508C23.0001 22.6598 22.5155 24.0111 21.6528 25.0074C20.7901 26.0037 19.6201 26.5634 18.4001 26.5634H4.60002C3.38002 26.5634 2.20999 26.0037 1.34732 25.0074C0.484644 24.0111 0 22.6598 0 21.2508V17.2662C0 16.914 0.121161 16.5762 0.336829 16.3271C0.552497 16.078 0.845005 15.9381 1.15001 15.9381C1.45501 15.9381 1.74752 16.078 1.96318 16.3271C2.17885 16.5762 2.30001 16.914 2.30001 17.2662V21.2508C2.30001 21.9553 2.54233 22.6309 2.97367 23.1291C3.40501 23.6272 3.99002 23.9071 4.60002 23.9071H8.05004C8.35504 23.9071 8.64755 24.047 8.86322 24.2961C9.07889 24.5452 9.20005 24.883 9.20005 25.2353C9.20005 25.5875 9.07889 25.9254 8.86322 26.1744C8.64755 26.4235 8.35504 26.5634 8.05004 26.5634H14.9501C14.6451 26.5634 14.3526 26.4235 14.1369 26.1744C13.9212 25.9254 13.8001 25.5875 13.8001 25.2353C13.8001 24.883 13.9212 24.5452 14.1369 24.2961C14.3526 24.047 14.6451 23.9071 14.9501 23.9071ZM2.30001 9.29721C2.30001 9.64946 2.17885 9.98729 1.96318 10.2364C1.74752 10.4854 1.45501 10.6254 1.15001 10.6254C0.845005 10.6254 0.552497 10.4854 0.336829 10.2364C0.121161 9.98729 0 9.64946 0 9.29721V5.31269C0 3.90368 0.484644 2.55237 1.34732 1.55605C2.20999 0.559728 3.38002 0 4.60002 0L8.05004 0C8.35504 0 8.64755 0.139932 8.86322 0.389013C9.07889 0.638093 9.20005 0.975919 9.20005 1.32817C9.20005 1.68043 9.07889 2.01825 8.86322 2.26733C8.64755 2.51641 8.35504 2.65634 8.05004 2.65634H4.60002C3.99002 2.65634 3.40501 2.93621 2.97367 3.43437C2.54233 3.93253 2.30001 4.60818 2.30001 5.31269V9.29721ZM20.7001 9.29721V5.31269C20.7001 4.60818 20.4578 3.93253 20.0265 3.43437C19.5951 2.93621 19.0101 2.65634 18.4001 2.65634H14.9501C14.6451 2.65634 14.3526 2.51641 14.1369 2.26733C13.9212 2.01825 13.8001 1.68043 13.8001 1.32817C13.8001 0.975919 13.9212 0.638093 14.1369 0.389013C14.3526 0.139932 14.6451 0 14.9501 0L18.4001 0C19.6201 0 20.7901 0.559728 21.6528 1.55605C22.5155 2.55237 23.0001 3.90368 23.0001 5.31269V9.29721C23.0001 9.64946 22.879 9.98729 22.6633 10.2364C22.4476 10.4854 22.1551 10.6254 21.8501 10.6254C21.5451 10.6254 21.2526 10.4854 21.0369 10.2364C20.8213 9.98729 20.7001 9.64946 20.7001 9.29721Z" fill="black"/>
</svg>
