<svg width="44" height="44" viewBox="0 0 44 44" fill="none" xmlns="http://www.w3.org/2000/svg">
<g filter="url(#filter0_d_80_198)">
<path d="M22 35.8241C31.8926 35.8241 39.912 27.8046 39.912 17.912C39.912 8.01949 31.8926 0 22 0C12.1075 0 4.08796 8.01949 4.08796 17.912C4.08796 27.8046 12.1075 35.8241 22 35.8241Z" fill="#E0E0E0"/>
</g>
<path d="M22 35.2796C31.7422 35.2796 39.6398 27.382 39.6398 17.6398C39.6398 7.89761 31.7422 0 22 0C12.2578 0 4.36017 7.89761 4.36017 17.6398C4.36017 27.382 12.2578 35.2796 22 35.2796Z" fill="white"/>
<mask id="mask0_80_198" style="mask-type:luminance" maskUnits="userSpaceOnUse" x="10" y="5" width="24" height="25">
<path d="M33.4332 15.571H22.2722V20.1988H28.6966C28.0977 23.1387 25.5933 24.8265 22.2722 24.8265C18.3522 24.8265 15.1945 21.6688 15.1945 17.7488C15.1945 13.8288 18.3522 10.6711 22.2722 10.6711C23.96 10.6711 25.4844 11.27 26.6821 12.25L30.1666 8.76556C28.0433 6.91447 25.3211 5.77115 22.2722 5.77115C15.6301 5.77115 10.2946 11.1066 10.2946 17.7488C10.2946 24.3909 15.6301 29.7264 22.2722 29.7264C28.261 29.7264 33.7054 25.3709 33.7054 17.7488C33.7054 17.041 33.5965 16.2788 33.4332 15.571Z" fill="white"/>
</mask>
<g mask="url(#mask0_80_198)">
<path d="M9.2057 24.8264V10.671L18.4612 17.7487L9.2057 24.8264Z" fill="#FBBC05"/>
</g>
<mask id="mask1_80_198" style="mask-type:luminance" maskUnits="userSpaceOnUse" x="10" y="5" width="24" height="25">
<path d="M33.4332 15.571H22.2722V20.1988H28.6966C28.0977 23.1387 25.5933 24.8265 22.2722 24.8265C18.3522 24.8265 15.1945 21.6688 15.1945 17.7488C15.1945 13.8288 18.3522 10.6711 22.2722 10.6711C23.96 10.6711 25.4844 11.27 26.6821 12.25L30.1666 8.76556C28.0433 6.91447 25.3211 5.77115 22.2722 5.77115C15.6301 5.77115 10.2946 11.1066 10.2946 17.7488C10.2946 24.3909 15.6301 29.7264 22.2722 29.7264C28.261 29.7264 33.7054 25.3709 33.7054 17.7488C33.7054 17.041 33.5965 16.2788 33.4332 15.571Z" fill="white"/>
</mask>
<g mask="url(#mask1_80_198)">
<path d="M9.2057 10.6711L18.4612 17.7488L22.2722 14.4278L35.3388 12.3044V4.68229H9.2057V10.6711Z" fill="#EA4335"/>
</g>
<mask id="mask2_80_198" style="mask-type:luminance" maskUnits="userSpaceOnUse" x="10" y="5" width="24" height="25">
<path d="M33.4332 15.571H22.2722V20.1988H28.6966C28.0977 23.1387 25.5933 24.8265 22.2722 24.8265C18.3522 24.8265 15.1945 21.6688 15.1945 17.7488C15.1945 13.8288 18.3522 10.6711 22.2722 10.6711C23.96 10.6711 25.4844 11.27 26.6821 12.25L30.1666 8.76556C28.0433 6.91447 25.3211 5.77115 22.2722 5.77115C15.6301 5.77115 10.2946 11.1066 10.2946 17.7488C10.2946 24.3909 15.6301 29.7264 22.2722 29.7264C28.261 29.7264 33.7054 25.3709 33.7054 17.7488C33.7054 17.041 33.5965 16.2788 33.4332 15.571Z" fill="white"/>
</mask>
<g mask="url(#mask2_80_198)">
<path d="M9.2057 24.8265L25.5389 12.3044L29.8399 12.8489L35.3388 4.68229V30.8153H9.2057V24.8265Z" fill="#34A853"/>
</g>
<mask id="mask3_80_198" style="mask-type:luminance" maskUnits="userSpaceOnUse" x="10" y="5" width="24" height="25">
<path d="M33.4332 15.571H22.2722V20.1988H28.6966C28.0977 23.1387 25.5933 24.8265 22.2722 24.8265C18.3522 24.8265 15.1945 21.6688 15.1945 17.7488C15.1945 13.8288 18.3522 10.6711 22.2722 10.6711C23.96 10.6711 25.4844 11.27 26.6821 12.25L30.1666 8.76556C28.0433 6.91447 25.3211 5.77115 22.2722 5.77115C15.6301 5.77115 10.2946 11.1066 10.2946 17.7488C10.2946 24.3909 15.6301 29.7264 22.2722 29.7264C28.261 29.7264 33.7054 25.3709 33.7054 17.7488C33.7054 17.041 33.5965 16.2788 33.4332 15.571Z" fill="white"/>
</mask>
<g mask="url(#mask3_80_198)">
<path d="M35.3388 30.8152L18.4612 17.7487L16.2834 16.1154L35.3388 10.671V30.8152Z" fill="#4285F4"/>
</g>
<defs>
<filter id="filter0_d_80_198" x="0" y="0" width="44" height="43.9999" filterUnits="userSpaceOnUse" color-interpolation-filters="sRGB">
<feFlood flood-opacity="0" result="BackgroundImageFix"/>
<feColorMatrix in="SourceAlpha" type="matrix" values="0 0 0 0 0 0 0 0 0 0 0 0 0 0 0 0 0 0 127 0" result="hardAlpha"/>
<feOffset dy="4"/>
<feGaussianBlur stdDeviation="2"/>
<feComposite in2="hardAlpha" operator="out"/>
<feColorMatrix type="matrix" values="0 0 0 0 0 0 0 0 0 0 0 0 0 0 0 0 0 0 0.25 0"/>
<feBlend mode="normal" in2="BackgroundImageFix" result="effect1_dropShadow_80_198"/>
<feBlend mode="normal" in="SourceGraphic" in2="effect1_dropShadow_80_198" result="shape"/>
</filter>
</defs>
</svg>
