<svg width="331" height="259" viewBox="0 0 331 259" fill="none" xmlns="http://www.w3.org/2000/svg">
<path d="M49.3156 128.933C37.6933 126.528 15.0832 131.271 5.23091 133.943C3.89501 134.277 1.12302 135.245 0.722248 136.447C0.321478 137.65 0.55526 138.952 0.722248 139.453C3.89501 142.459 10.3407 148.47 10.7415 148.47C11.7434 149.973 15.2502 150.975 35.2886 172.016C46.8108 183.538 78.8724 233.634 77.3695 231.129C75.8666 228.624 93.4003 257.179 101.416 258.181C109.431 259.183 116.945 256.678 123.458 249.164C127.466 243.653 125.462 243.152 133.978 231.129C142.495 219.106 145.5 209.087 150.51 202.574C155.52 196.062 191.088 137.95 195.096 131.438C199.103 124.925 227.658 91.3608 231.666 87.3531C235.674 83.3454 252.205 67.3146 259.219 59.8001C264.83 53.7886 308.313 19.5562 329.353 3.19142L330.355 1.68853L329.353 0.686573C330.856 0.0186232 327.65 0.786766 302.802 9.20293C290.278 12.7097 226.656 39.7616 202.61 55.7924C178.564 71.8232 148.506 114.405 141.493 121.919C135.882 127.931 115.109 164.501 105.423 182.035H104.922H103.92C100.414 174.186 91.196 156.185 82.3791 146.968C71.3579 135.445 63.8435 131.939 49.3156 128.933Z" fill="#3AB793" stroke="black"/>
</svg>
