<svg width="20" height="20" viewBox="0 0 20 20" fill="none" xmlns="http://www.w3.org/2000/svg">
<path d="M18.4506 12.4805C18.8461 12.4805 19.1667 12.1598 19.1667 11.7643V7.10936C19.1667 5.52983 17.8817 4.24478 16.3021 4.24478H15.215C14.9083 4.24478 14.6358 4.04974 14.537 3.75938L14.3203 3.12283C14.0238 2.25186 13.2065 1.66666 12.2865 1.66666H7.71135C6.80914 1.66666 5.99707 2.23682 5.69067 3.08538L5.44277 3.77187C5.34062 4.05472 5.06995 4.24478 4.7692 4.24478H3.69796C2.11843 4.24478 0.833374 5.52983 0.833374 7.10936V15.345C0.833374 16.9246 2.11843 18.2096 3.69796 18.2096H16.3021C17.8817 18.2096 19.1667 16.9246 19.1667 15.345C19.1667 14.9495 18.8461 14.6289 18.4506 14.6289C18.055 14.6289 17.7344 14.9495 17.7344 15.345C17.7344 16.1348 17.0919 16.7773 16.3021 16.7773H3.69796C2.90819 16.7773 2.26567 16.1348 2.26567 15.345V7.10936C2.26567 6.3196 2.90819 5.67707 3.69796 5.67707H4.7692C5.6714 5.67707 6.48348 5.10691 6.78988 4.25835L7.03777 3.57185C7.13993 3.28901 7.4106 3.09895 7.71135 3.09895H12.2865C12.5932 3.09895 12.8656 3.29403 12.9645 3.58435L13.1811 4.2209C13.4776 5.09187 14.2949 5.67707 15.215 5.67707H16.3021C17.0919 5.67707 17.7344 6.3196 17.7344 7.10936V11.7643C17.7344 12.1598 18.055 12.4805 18.4506 12.4805Z" fill="#54B6AB"/>
<path fill-rule="evenodd" clip-rule="evenodd" d="M5.55994 10.8691C5.55994 8.40111 7.56783 6.39322 10.0358 6.39322C12.5039 6.39322 14.5118 8.40111 14.5118 10.8691C14.5118 13.3371 12.5039 15.345 10.0358 15.345C7.56783 15.345 5.55994 13.3371 5.55994 10.8691ZM6.99223 10.8691C6.99223 12.5474 8.3576 13.9128 10.0358 13.9128C11.7141 13.9128 13.0795 12.5474 13.0795 10.8691C13.0795 9.19088 11.7141 7.82551 10.0358 7.82551C8.3576 7.82551 6.99223 9.19088 6.99223 10.8691Z" fill="#54B6AB"/>
</svg>
