<svg width="250" height="240" viewBox="0 0 250 240" fill="none" xmlns="http://www.w3.org/2000/svg">
<path fill-rule="evenodd" clip-rule="evenodd" d="M210.055 2.64221C210.055 1.42617 211.041 0.440371 212.257 0.440371H229.871C240.816 0.440371 249.688 9.31253 249.688 20.2569V37.8716C249.688 39.0876 248.702 40.0734 247.486 40.0734C246.27 40.0734 245.284 39.0876 245.284 37.8716V20.2569C245.284 11.7446 238.384 4.84404 229.871 4.84404H212.257C211.041 4.84404 210.055 3.85825 210.055 2.64221Z" fill="white"/>
<path fill-rule="evenodd" clip-rule="evenodd" d="M2.20183 39.633C0.985795 39.633 -4.30905e-08 38.6472 -9.62452e-08 37.4311L-8.66207e-07 19.8165C-1.3446e-06 8.87211 8.87215 -4.24371e-05 19.8165 -4.29155e-05L37.4312 -4.36854e-05C38.6472 -4.37386e-05 39.633 0.985752 39.633 2.20179C39.633 3.41783 38.6472 4.40363 37.4312 4.40363L19.8165 4.40363C11.3042 4.40363 4.40367 11.3042 4.40367 19.8165L4.40367 37.4311C4.40367 38.6472 3.41787 39.633 2.20183 39.633Z" fill="white"/>
<path fill-rule="evenodd" clip-rule="evenodd" d="M247.486 200.367C248.702 200.367 249.688 201.353 249.688 202.569L249.688 220.183C249.688 231.128 240.816 240 229.872 240L212.257 240C211.041 240 210.055 239.014 210.055 237.798C210.055 236.582 211.041 235.596 212.257 235.596L229.872 235.596C238.384 235.596 245.284 228.696 245.284 220.183L245.284 202.569C245.284 201.353 246.27 200.367 247.486 200.367Z" fill="white"/>
<path fill-rule="evenodd" clip-rule="evenodd" d="M39.6329 237.358C39.6329 238.574 38.6471 239.56 37.431 239.56L19.8163 239.56C8.87199 239.56 -0.000163599 230.687 -0.000162642 219.743L-0.000161102 202.128C-0.000160996 200.912 0.985635 199.927 2.20167 199.927C3.41771 199.927 4.40351 200.912 4.40351 202.128L4.40351 219.743C4.40351 228.255 11.3041 235.156 19.8163 235.156L37.431 235.156C38.6471 235.156 39.6329 236.142 39.6329 237.358Z" fill="white"/>
</svg>
