<svg width="18" height="12" viewBox="0 0 18 12" fill="none" xmlns="http://www.w3.org/2000/svg">
<path d="M9 0C4.0332 0 0 2.6888 0 6C0 9.3112 4.0332 12 9 12C13.9668 12 18 9.3112 18 6C18 2.6888 13.9668 0 9 0ZM9 0.4C13.6428 0.4 17.4 2.9048 17.4 6C17.4 9.0952 13.6428 11.6 9 11.6C4.3572 11.6 0.6 9.0952 0.6 6C0.6 2.9048 4.3572 0.4 9 0.4ZM9 1.2C5.0274 1.2 1.8 3.3516 1.8 6C1.8 8.6488 5.0274 10.8 9 10.8C12.9726 10.8 16.2 8.6488 16.2 6C16.2 3.3516 12.9726 1.2 9 1.2ZM9 1.6C12.2382 1.6 14.922 3.1508 15.486 5.2H13.6584C12.8874 4.434 11.0472 4 8.9928 4H8.9916C6.9444 4 5.1156 4.4368 4.3488 5.2H2.5134C3.078 3.1508 5.7618 1.6 9 1.6ZM8.9928 4.4C10.9572 4.4 12.6558 4.8812 13.1976 5.4616L13.1964 6.8416C12.4413 6.88747 11.7343 7.10826 11.198 7.4656C10.6618 7.82294 10.3303 8.29424 10.2612 8.7976H7.7388C7.66996 8.29431 7.33873 7.82302 6.80269 7.46567C6.26666 7.10832 5.55973 6.8875 4.8048 6.8416L4.8024 5.4688C5.3352 4.888 7.0284 4.4016 8.9928 4.4ZM2.4306 5.6H4.2024L4.2036 6.4H2.43C2.412 6.268 2.4 6.1352 2.4 6C2.4 5.8652 2.4132 5.732 2.4306 5.6ZM9 5.6C8.3406 5.6 7.8 5.9604 7.8 6.4C7.8 6.8396 8.3406 7.2 9 7.2C9.6594 7.2 10.2 6.8396 10.2 6.4C10.2 5.9604 9.6594 5.6 9 5.6ZM13.7976 5.6H15.5694C15.5874 5.732 15.6 5.8652 15.6 6C15.6 6.1352 15.5874 6.268 15.57 6.4H13.7964L13.7976 5.6ZM9 6C9.3348 6 9.6 6.1768 9.6 6.4C9.6 6.6232 9.3348 6.8 9 6.8C8.6652 6.8 8.4 6.6232 8.4 6.4C8.4 6.1768 8.6652 6 9 6ZM2.514 6.8H4.2048V7.0008C4.2048 7.05384 4.23641 7.10471 4.29267 7.14222C4.34893 7.17973 4.42524 7.2008 4.5048 7.2008C4.85892 7.20038 5.20967 7.24657 5.53696 7.33672C5.86424 7.42686 6.16161 7.5592 6.412 7.72613C6.6624 7.89306 6.86091 8.09131 6.99613 8.3095C7.13135 8.52769 7.20063 8.76152 7.2 8.9976C7.2 9.05064 7.23161 9.10151 7.28787 9.13902C7.34413 9.17653 7.42043 9.1976 7.5 9.1976H7.8V10.3236C6.48742 10.1621 5.2793 9.73875 4.33543 9.10957C3.39157 8.4804 2.75642 7.67504 2.514 6.8ZM13.7964 6.8H15.4866C15.2441 7.67509 14.6089 8.48049 13.6649 9.10967C12.7209 9.73885 11.5127 10.1622 10.2 10.3236V9.1976H10.5C10.5796 9.1976 10.6559 9.17653 10.7121 9.13902C10.7684 9.10151 10.8 9.05064 10.8 8.9976C10.7995 8.76149 10.869 8.52763 11.0043 8.30944C11.1397 8.09124 11.3383 7.893 11.5888 7.72608C11.8393 7.55916 12.1367 7.42684 12.4641 7.3367C12.7914 7.24656 13.1422 7.20038 13.4964 7.2008C13.576 7.2008 13.6523 7.17973 13.7085 7.14222C13.7648 7.10471 13.7964 7.05384 13.7964 7.0008V6.8ZM8.4 9.1976H9.6V10.3788C9.402 10.3908 9.2028 10.4 9 10.4C8.7972 10.4 8.598 10.3908 8.4 10.3788V9.1976Z" fill="black"/>
</svg>
