<svg width="25" height="24" viewBox="0 0 25 24" fill="none" xmlns="http://www.w3.org/2000/svg">
<path fill-rule="evenodd" clip-rule="evenodd" d="M14.9658 1.28628C14.5716 0.899445 13.9385 0.90539 13.5516 1.29956C13.1648 1.69374 13.1707 2.32688 13.5649 2.71372L15.8945 5H12.2274C7.75365 5 4.09473 8.5641 4.09473 13C4.09473 17.4359 7.75365 21 12.2274 21C16.7012 21 20.3601 17.4359 20.3601 13V11C20.3601 10.4477 19.9124 10 19.3601 10C18.8078 10 18.3601 10.4477 18.3601 11V13C18.3601 16.2961 15.6322 19 12.2274 19C8.82264 19 6.09473 16.2961 6.09473 13C6.09473 9.70391 8.82264 7 12.2274 7H15.8945L13.5649 9.28629C13.1707 9.67313 13.1648 10.3063 13.5516 10.7004C13.9385 11.0946 14.5716 11.1006 14.9658 10.7137L19.0416 6.71372L19.7689 6L19.0416 5.28629L14.9658 1.28628Z" fill="black"/>
</svg>
