<svg width="8" height="8" viewBox="0 0 8 8" fill="none" xmlns="http://www.w3.org/2000/svg">
<path d="M6.9005 0.192662L0.195287 6.90504L1.10556 7.81173L7.80719 1.10294L6.9005 0.192662Z" fill="black"/>
<path d="M6.88943 0.189241C7.07298 0.00487172 7.34959 -0.0506316 7.59005 0.0486567C7.83051 0.147945 7.98738 0.38243 7.98738 0.642587C7.98738 0.902743 7.83051 1.13723 7.59005 1.23652C7.34959 1.33581 7.07298 1.2803 6.88943 1.09593C6.64122 0.844666 6.64122 0.440507 6.88943 0.189241Z" fill="black"/>
<path d="M0.18794 6.88746C0.372207 6.70238 0.649887 6.64667 0.891283 6.74635C1.13268 6.84603 1.29015 7.08143 1.29015 7.34259C1.29015 7.60376 1.13268 7.83916 0.891283 7.93884C0.649887 8.03852 0.372207 7.98281 0.18794 7.79773C-0.0626467 7.54604 -0.0626467 7.13914 0.18794 6.88746Z" fill="black"/>
<path d="M7.807 6.89796L1.09463 0.196337L0.187937 1.10661L6.89673 7.80824L7.807 6.89796Z" fill="black"/>
<path d="M7.81075 6.89101C7.99512 7.07456 8.05063 7.35116 7.95134 7.59163C7.85205 7.83209 7.61756 7.98896 7.35741 7.98896C7.09725 7.98896 6.86277 7.83209 6.76348 7.59163C6.66419 7.35116 6.71969 7.07456 6.90406 6.89101C7.15533 6.64279 7.55949 6.64279 7.81075 6.89101Z" fill="black"/>
<path d="M1.11283 0.18899C1.29791 0.373257 1.35362 0.650937 1.25394 0.892333C1.15426 1.13373 0.918861 1.2912 0.657695 1.2912C0.396528 1.2912 0.161131 1.13373 0.0614517 0.892333C-0.0382279 0.650937 0.0174807 0.373257 0.202557 0.18899C0.454245 -0.0615967 0.861144 -0.0615967 1.11283 0.18899Z" fill="black"/>
</svg>
