<svg width="18" height="12" viewBox="0 0 18 12" fill="none" xmlns="http://www.w3.org/2000/svg">
<path d="M15.1089 4.83841C14.8088 4.83841 14.5192 4.8953 14.2468 5.001L12.7494 0.738336C12.7236 0.664921 12.6799 0.603037 12.6243 0.562293L11.9409 0.0549242C11.8823 0.011106 11.814 -0.00734321 11.746 0.00265042L10.068 0.242112C9.89766 0.266328 9.77569 0.45736 9.79525 0.667995C9.8148 0.879015 9.9709 1.03007 10.1391 1.00586L11.7125 0.781385L12.2202 1.15845L13.6791 5.31157C12.8077 5.92887 12.2181 7.08928 12.2181 8.41921C12.2181 10.3937 13.515 12 15.1092 12C16.7034 12 18 10.3937 18 8.41921C17.9997 6.44431 16.7028 4.83841 15.1089 4.83841ZM15.1089 11.2305C13.857 11.2305 12.8384 9.96899 12.8384 8.41844C12.8384 7.4037 13.276 6.51581 13.9283 6.02151L14.2924 7.05815C13.956 7.36872 13.7347 7.86034 13.7347 8.41883C13.7347 9.35707 14.351 10.1204 15.1089 10.1204C15.8661 10.1204 16.4824 9.35707 16.4824 8.41883C16.4824 7.48096 15.8661 6.7176 15.1089 6.7176C15.0238 6.7176 14.9413 6.73028 14.8603 6.74873L14.4969 5.71401C14.6918 5.64636 14.8966 5.60754 15.1089 5.60754C16.3608 5.60754 17.379 6.86866 17.379 8.41921C17.379 9.96937 16.3605 11.2305 15.1089 11.2305ZM14.5515 7.79653L14.824 8.57219C14.8749 8.71671 14.9888 8.80358 15.1086 8.80358C15.1498 8.80358 15.192 8.7932 15.2321 8.77168C15.3891 8.68711 15.4611 8.46033 15.3928 8.26584L15.1197 7.48788C15.5297 7.49557 15.8615 7.90953 15.8615 8.41921C15.8615 8.93349 15.5238 9.35207 15.1086 9.35207C14.693 9.35207 14.3551 8.93349 14.3551 8.41921C14.3554 8.17859 14.4308 7.96181 14.5515 7.79653ZM7.06146 8.38769C7.16015 8.56142 7.12633 8.80127 6.98636 8.9235C6.93205 8.97078 6.86968 8.99346 6.80792 8.99346C6.71047 8.99346 6.61427 8.93657 6.55375 8.83048C6.24248 8.28276 6.23379 7.36988 6.23379 7.26763V5.48147C6.23379 5.26929 6.37282 5.0971 6.54413 5.0971C6.71544 5.0971 6.85447 5.26929 6.85447 5.48147V7.26763C6.85509 7.56091 6.91188 8.1244 7.06146 8.38769ZM11.9161 5.63214C12.165 5.01369 12.5995 3.7026 12.3065 2.6771C12.3056 2.67402 12.3034 2.6721 12.3025 2.66903C12.2994 2.6575 12.2984 2.64635 12.2947 2.63482C12.0769 1.94795 11.715 1.66736 11.0456 1.66736C10.8749 1.66736 10.6698 1.68466 10.4187 1.72079C9.77476 1.81265 8.01079 2.2443 7.48849 3.07338C6.93919 3.03033 5.3757 2.90657 4.93657 2.85929C4.8714 2.85199 4.77644 2.837 4.66037 2.81932C4.30689 2.76397 3.77311 2.68056 3.26601 2.68056C2.55565 2.68056 2.11372 2.84084 1.87538 3.18562C1.72983 3.39626 1.67273 3.66531 1.70997 3.96359C1.73045 4.12771 1.8338 4.25648 1.966 4.28377L3.10339 4.51631V4.85148C3.03264 4.84495 2.96188 4.83803 2.89112 4.83803C1.29691 4.83841 0 6.44431 0 8.41844C0 10.393 1.29691 11.9992 2.89112 11.9992C4.01548 11.9992 4.98933 11.1986 5.46725 10.0351C5.97186 10.1039 6.42216 10.112 6.73157 10.1147C6.84236 10.1154 6.93702 10.1162 7.01243 10.12C7.01616 10.12 7.02019 10.12 7.02422 10.1204C7.45684 10.1416 7.93073 10.1569 8.39934 10.1569C9.39522 10.1569 10.366 10.0881 10.8585 9.86213C10.9221 9.83292 10.9761 9.77872 11.0124 9.708C11.3324 9.08494 12.052 7.20267 12.1575 6.3659C12.1883 6.12259 12.1324 5.89159 12.0002 5.71555C11.976 5.68326 11.9447 5.65943 11.9161 5.63214ZM3.26632 3.44892C3.73432 3.44892 4.24482 3.52887 4.58278 3.58152C4.70847 3.60113 4.81181 3.61727 4.88257 3.62496C5.42287 3.68338 7.55149 3.84866 7.6418 3.85558C7.78238 3.86519 7.91769 3.75295 7.95866 3.58114C8.03624 3.25596 9.30212 2.65404 10.4898 2.48453C11.4456 2.34808 11.5781 2.47838 11.7172 2.91579C11.7737 3.09414 11.3749 3.64686 10.9091 4.04776H5.78007H4.62251L2.44299 3.60151C2.55813 3.53117 2.79368 3.44892 3.26632 3.44892ZM5.46973 6.88326H5.29656H4.12658H3.72407V6.61689V5.28851V4.81689H4.59706H5.47004L5.46973 6.88326ZM4.13217 8.41844C4.13217 9.26636 3.57542 9.95592 2.89112 9.95592C2.20651 9.95592 1.64976 9.26636 1.64976 8.41844C1.64976 7.5709 2.20651 6.88134 2.89112 6.88134C2.96095 6.88134 3.03109 6.8898 3.10339 6.90709V7.26725C3.10339 7.47942 3.24243 7.65162 3.41373 7.65162H3.96148C4.07352 7.88762 4.13217 8.14938 4.13217 8.41844ZM2.89112 11.2305C1.63921 11.2305 0.620679 9.96937 0.620679 8.41844C0.620679 6.86789 1.63921 5.60677 2.89112 5.60677C2.96188 5.60677 3.03295 5.611 3.10339 5.61907V6.13336C1.98555 5.95463 1.02909 7.05739 1.02909 8.41844C1.02909 9.69032 1.86452 10.7247 2.89112 10.7247C3.91773 10.7247 4.75285 9.69032 4.75285 8.41844C4.75285 8.15438 4.71375 7.89723 4.64206 7.65162H5.07405C5.13239 7.90261 5.16157 8.15976 5.16157 8.41844C5.16157 9.96937 4.14303 11.2305 2.89112 11.2305ZM5.73569 9.03843C5.74718 9.05035 5.75804 9.0611 5.76952 9.07302C5.85176 9.15758 5.93276 9.24061 6.01252 9.32133C5.90886 9.31441 5.80304 9.30557 5.69132 9.29288C5.70838 9.20947 5.72359 9.12453 5.73569 9.03843ZM10.5453 9.18026C10.0035 9.37052 8.7643 9.43279 7.09995 9.35438C6.89233 9.22715 6.49292 8.8178 6.16614 8.48148C6.02679 8.33811 5.89397 8.20319 5.7689 8.08019C5.75773 7.93605 5.73694 7.79345 5.71149 7.652H5.78038C5.95169 7.652 6.09072 7.47981 6.09072 7.26763V4.81689H11.0043C11.0645 4.81689 11.1238 4.79498 11.1741 4.75424C11.2861 4.66352 11.4807 4.49517 11.679 4.27915C11.5871 4.68774 11.4515 5.07249 11.3389 5.34501C11.0714 5.2862 10.798 5.28351 10.6158 5.29389C10.3868 5.04443 10.0901 4.88761 9.76173 4.88761C9.05385 4.88761 8.4763 5.59216 8.46234 6.46468C8.41206 6.52772 8.24386 6.61498 8.09521 6.65533C7.96269 6.66072 7.83731 6.69876 7.72187 6.76065V5.86545H7.89007C8.06138 5.86545 8.20041 5.69325 8.20041 5.48108C8.20041 5.26891 8.06138 5.09671 7.89007 5.09671H7.41153C7.24022 5.09671 7.10119 5.26891 7.10119 5.48108V7.9276C7.10119 8.62984 7.56235 9.20101 8.12934 9.20101H9.76142C10.3284 9.20101 10.7896 8.62984 10.7896 7.9276C10.7896 7.79845 10.7731 7.67045 10.7418 7.54746C10.9469 7.25726 11.0611 6.88749 11.0611 6.49697C11.0611 6.34784 11.0394 6.20639 11.0087 6.06955C11.2889 6.09569 11.5049 6.1668 11.5446 6.24713C11.4624 6.89825 10.8554 8.52414 10.5453 9.18026ZM10.1056 7.66238C10.1475 7.74541 10.1689 7.83458 10.1689 7.92798C10.1689 8.20627 9.9861 8.43266 9.76142 8.43266H8.12934C7.90466 8.43266 7.72187 8.20627 7.72187 7.92798C7.72187 7.6497 7.90466 7.4233 8.12934 7.4233C8.14858 7.4233 8.16782 7.421 8.18676 7.41677C8.33634 7.38179 9.08271 7.17308 9.08271 6.49697C9.08271 6.03342 9.38715 5.65597 9.76173 5.65597C10.1363 5.65597 10.4408 6.03304 10.4408 6.49697C10.4408 6.75296 10.3445 6.99281 10.1773 7.1554C10.0519 7.27686 10.0212 7.49557 10.1056 7.66238Z" fill="black"/>
</svg>
