<svg width="18" height="10" viewBox="0 0 18 10" fill="none" xmlns="http://www.w3.org/2000/svg">
<path d="M15 8.75C15.825 8.75 16.5 8.1875 16.5 7.5V1.25C16.5 0.5625 15.825 0 15 0H3C2.175 0 1.5 0.5625 1.5 1.25V7.5C1.5 8.1875 2.175 8.75 3 8.75H0.75C0.3375 8.75 0 9.03125 0 9.375C0 9.71875 0.3375 10 0.75 10H17.25C17.6625 10 18 9.71875 18 9.375C18 9.03125 17.6625 8.75 17.25 8.75H15ZM3.75 1.25H14.25C14.6625 1.25 15 1.53125 15 1.875V6.875C15 7.21875 14.6625 7.5 14.25 7.5H3.75C3.3375 7.5 3 7.21875 3 6.875V1.875C3 1.53125 3.3375 1.25 3.75 1.25Z" fill="black"/>
</svg>
