<svg width="14" height="14" viewBox="0 0 14 14" fill="none" xmlns="http://www.w3.org/2000/svg">
<path d="M7 4.92593V13.2222" stroke="black" stroke-width="1.5"/>
<path d="M4.92593 4.92601V3.54329C4.92593 2.39781 5.85452 1.46922 7 1.46922V1.46922C8.14548 1.46922 9.07407 2.39781 9.07407 3.54329V4.92601" stroke="black" stroke-width="1.5"/>
<path d="M3.54321 7H0.777778" stroke="black" stroke-width="1.5" stroke-linecap="round"/>
<path d="M13.2221 7H10.4567" stroke="black" stroke-width="1.5" stroke-linecap="round"/>
<path d="M3.54329 9.76539L1.46922 11.1481" stroke="black" stroke-width="1.5" stroke-linecap="round"/>
<path d="M12.5308 11.1481L10.4567 9.76539" stroke="black" stroke-width="1.5" stroke-linecap="round"/>
<path d="M5.27163 1.81481L4.23459 0.777778" stroke="black" stroke-width="1.5" stroke-linecap="round"/>
<path d="M8.72831 1.81481L9.76534 0.777778" stroke="black" stroke-width="1.5" stroke-linecap="round"/>
<path d="M3.54329 6.30864C3.54329 5.54499 4.16236 4.92593 4.92601 4.92593H9.07416C9.83781 4.92593 10.4569 5.54499 10.4569 6.30864V9.76543C10.4569 11.6746 8.90922 13.2222 7.00008 13.2222V13.2222C5.09095 13.2222 3.54329 11.6746 3.54329 9.76543V6.30864Z" stroke="black" stroke-width="1.5"/>
</svg>
